<svg
  viewBox="0 0 140 136.5"
  width="140"
  height="136.5"
  xmlns="http://www.w3.org/2000/svg"
  fill="none"
>
  <g
    id="shape_KAEiguNDND"
    class=""
    ref="shape_KAEiguNDND"
    key="shape_KAEiguNDND"
    transform="translate(0,0) rotate(0,70.003275352925,66.205723383074) scale(1,1)"
    style="cursor: move; display: inline; opacity: 1"
    filter=""
  >
    <g style="display: inline">
      <svg
        version="1.1"
        id="图层_1"
        xmlns="http://www.w3.org/2000/svg"
        xmlns:xlink="http://www.w3.org/1999/xlink"
        x="0px"
        y="0px"
        viewBox="0 0 403.7 381.8"
        style="enable-background: new 0 0 403.7 381.8"
        xml:space="preserve"
        width="140"
        height="136.5"
        class="style-removed"
        preserveAspectRatio="none"
        data-parent="shape_KAEiguNDND"
      >
        <g>
          <circle
            cx="293.8"
            cy="176"
            r="109.9"
            fill="#028FD4"
            stroke-width="0"
          ></circle>
          <path
            d="M24.5,349.1H7.5c-4.1,0-7.5-3.3-7.5-7.5l0,0c0-4.1,3.3-7.5,7.5-7.5h17.1c4.1,0,7.5,3.3,7.5,7.5l0,0
		C32,345.7,28.7,349.1,24.5,349.1z"
            fill="#0797D6"
            stroke-width="0"
          ></path>
          <g>
            <path
              d="M256.7,72.5c-13.4-3.7-27.5-5.7-42.2-5.7c-1.8,0-3.5,0-5.3,0.1h0v0h-115c-5.1,0-9.2,4.1-9.2,9.2v0
			c0,5.1,4.1,9.2,9.2,9.2h46.1c0,0,0,0,0,0c-0.1,0-0.2,0.1-0.2,0.1H184c3.8,0,6.9,3.1,6.9,6.9c0,1.9-0.8,3.6-2,4.9
			c-1.2,1.2-3,2-4.9,2h-65.2c0,0,0,0,0,0H70.1c-3.8,0-6.9,3.1-6.9,6.9c0,3.8,3.1,6.9,6.9,6.9H103c0,0,0,0,0,0
			c-8.2,8.2-15.5,17.4-21.7,27.2h33.4c3.8,0,6.9,3.1,6.9,6.9c0,1.9-0.8,3.6-2,4.9c-1.2,1.2-3,2-4.9,2H73.5v0c0,0,0,0,0,0h-58
			c-3.8,0-6.9,3.1-6.9,6.9s3.1,6.9,6.9,6.9h52C60.7,185.3,57,204.4,57,224.3c0,42.7,17,81.5,44.6,109.8H46c-2.1,0-3.9,0.8-5.3,2.2
			c-1.3,1.4-2.2,3.2-2.2,5.3c0,4.1,3.4,7.5,7.5,7.5h72.4h69.9c4.1,0,7.5,3.4,7.5,7.5c0,2.1-0.8,3.9-2.2,5.3
			c-1.3,1.3-3.2,2.2-5.3,2.2h-46.6c0,0,0,0,0,0h-24.7c-4.7,0-8.6,3.8-8.6,8.6s3.8,8.6,8.6,8.6h83.3c0,0,0,0,0,0
			c4.6,0.4,9.4,0.6,14.1,0.6c76,0,139.5-53.9,154.3-125.5c2.1-10.3,3.3-21.1,3.3-32C372,151.9,323.2,90.9,256.7,72.5z"
              fill="#012D80"
              stroke-width="0"
            ></path>
            <path
              d="M34.6,113h15.7c3.8,0,6.9-3.1,6.9-6.9c0-3.8-3.1-6.9-6.9-6.9H34.6c-3.8,0-6.9,3.1-6.9,6.9
			C27.7,110,30.8,113,34.6,113z"
              fill="#012D80"
              stroke-width="0"
            ></path>
          </g>
          <circle
            cx="225.7"
            cy="30.6"
            r="26.6"
            fill="#001F6B"
            stroke-width="0"
          ></circle>
          <circle
            cx="287.9"
            cy="12.4"
            r="12.4"
            fill="#001F6B"
            stroke-width="0"
          ></circle>
          <circle
            cx="330.6"
            cy="46.5"
            r="16.3"
            fill="#028FD4"
            stroke-width="0"
          ></circle>
        </g>
      </svg>
    </g>
  </g>
  <g
    id="shape_h41x3JG2Qi"
    class="brand_first"
    ref="shape_h41x3JG2Qi"
    key="shape_h41x3JG2Qi"
    transform="translate(-50,-263) rotate(0,147.793489049254,342.88999999999993) scale(1,1)"
    style="cursor: move; display: inline; opacity: 1"
    filter=""
  >
    <g style="display: inline">
      <svg
        xmlns="http://www.w3.org/2000/svg"
        version="1.1"
        xmlns:xlink="http://www.w3.org/1999/xlink"
        width="444.4"
        height="685.7799999999999"
        viewBox="0 0 444.4 685.7799999999999"
        preserveAspectRatio="none"
        data-parent="shape_h41x3JG2Qi"
      >
        <rect
          fill="rgba(0,0,0,0)"
          width="64"
          height="114"
          x="95.1"
          y="285.88999999999993"
        ></rect>
        <g data-width="63.241499999999995" transform="translate(95.47925, 0)">
          <path
            d="M33.48-61.91Q47.07-61.91 54.35-54.54Q61.62-47.17 61.62-33.28L61.62-33.28Q61.62-16.83 53.16-7.99Q44.70 0.86 28.91 0.86L28.91 0.86Q19.02 0.86 5.71 0L5.71 0L6.66-18.07L5.71-61.53L33.48-61.91ZM32.52-13.31Q36.99-13.31 39.32-16.88Q41.65-20.45 41.65-28.63L41.65-28.63Q41.65-35.57 40.70-39.56Q39.75-43.56 37.66-45.32Q35.57-47.07 31.86-47.07L31.86-47.07Q28.24-47.07 24.73-46.69L24.73-46.69L24.06-19.97L24.25-14.07Q29.96-13.31 32.52-13.31L32.52-13.31Z"
            transform="translate(0 370.88999999999993) "
            fill="#FFFFFF"
            stroke="#FFFFFF"
            stroke-width="0.158"
            data-glyph-w="63.241499999999995"
            data-glyph-h="114.11999999999999"
            data-glyph-ascender="85.58999999999999"
            data-glyph-descender="-28.529999999999998"
          ></path>
        </g>
      </svg>
    </g>
  </g>
</svg>
